<svg width="42" height="42" viewBox="0 0 42 42" fill="none" xmlns="http://www.w3.org/2000/svg">
<path d="M33.7059 35.2647C33.1475 35.2647 32.5893 35.0555 32.1631 34.6372C31.3111 33.8005 31.3111 32.4437 32.1631 31.6068C38.1179 25.7583 38.1179 16.2421 32.1631 10.3936C31.3111 9.55676 31.3111 8.19998 32.1631 7.36319C33.0151 6.5265 34.3966 6.52641 35.2486 7.36319C38.9575 11.0056 41 15.8486 41 21C41 26.1515 38.9575 30.9945 35.2486 34.6371C34.8226 35.0555 34.2643 35.2647 33.7059 35.2647ZM25.9555 31.2241C25.397 31.2241 24.8388 31.0149 24.4126 30.5965C23.5605 29.7597 23.5605 28.4031 24.4126 27.5662C28.099 23.9457 28.099 18.0547 24.4126 14.4343C23.5605 13.5974 23.5605 12.2406 24.4126 11.4038C25.2647 10.567 26.6461 10.567 27.4982 11.4038C32.8859 16.6953 32.8859 25.3052 27.4982 30.5967C27.0722 31.0149 26.5138 31.2241 25.9555 31.2241ZM19.9094 41C19.5308 41 19.1588 40.8549 18.8805 40.5815L7.67027 29.5715H2.45455C1.65127 29.5715 1 28.9319 1 28.1429V13.8572C1 13.0683 1.65127 12.4286 2.45455 12.4286H7.67027L18.8805 1.41848C19.2966 1.00982 19.9222 0.887673 20.4657 1.10883C21.0093 1.32999 21.3636 1.85089 21.3636 2.42865V39.5714C21.3636 40.1493 21.0093 40.6702 20.4657 40.8913C20.2858 40.9645 20.0967 41 19.9094 41Z" fill="white" stroke="#5F5555" stroke-width="1.5"/>
</svg>
