<svg width="29" height="29" viewBox="0 0 29 29" fill="none" xmlns="http://www.w3.org/2000/svg">
<path d="M3.38986 20.1828C5.44365 20.3708 7.56938 20.8953 9.68604 21.7562V23.9703L1.00586 22.4263V4.0668L3.38986 4.49047V20.1828ZM14.4892 24.3589V24.8245L12.7446 24.5141V23.2431C13.3297 23.575 13.9103 23.9335 14.4858 24.3181V24.3634C14.4869 24.3617 14.488 24.3606 14.4892 24.3589V24.3589Z" stroke="#5F5555" stroke-width="1.5" stroke-miterlimit="10" stroke-linecap="round" stroke-linejoin="round"/>
<path d="M14.5543 6.94895V24.3636L14.5216 24.3578L14.5028 24.3546L14.493 24.3529L14.4889 24.3521L14.4856 24.3513V7.03069C14.4864 7.02904 14.488 7.0274 14.4889 7.02576V6.93751L14.4938 6.93831L14.5028 6.93995L14.5216 6.94323L14.5437 6.94731L14.5543 6.94895ZM5.0883 18.3538C6.43408 18.3249 8.05627 18.7843 9.68582 19.7319V21.7562C7.56916 20.8953 5.44344 20.3708 3.38965 20.1827V2.76859C3.95096 2.81957 4.51793 2.8966 5.0883 2.99855V18.3538V18.3538ZM14.4856 24.2597V24.3181C13.9101 23.9335 13.3295 23.575 12.7444 23.243V22.1402C13.3567 22.7684 13.9429 23.4753 14.4856 24.2597V24.2597Z" stroke="#5F5555" stroke-width="1.5" stroke-miterlimit="10" stroke-linecap="round" stroke-linejoin="round"/>
<path d="M14.5539 6.94895V24.3636C14.549 24.3603 14.5449 24.357 14.54 24.3546C14.5335 24.3496 14.5278 24.3455 14.5212 24.3415C14.5163 24.3382 14.5114 24.335 14.5065 24.3325C14.5008 24.3275 14.4943 24.3235 14.4886 24.3202C14.4878 24.3194 14.4861 24.3186 14.4853 24.3178V7.03069C14.4861 7.02904 14.4877 7.0274 14.4886 7.02576V6.93179C14.4779 6.91542 14.4673 6.89911 14.4551 6.88359C14.4665 6.8901 14.4771 6.89747 14.4886 6.90562C14.4991 6.91214 14.5106 6.9195 14.5212 6.92686C14.5277 6.93094 14.5335 6.93502 14.54 6.93995C14.5417 6.94074 14.5441 6.94238 14.5458 6.94323C14.5482 6.94573 14.5515 6.94737 14.5539 6.94895V6.94895Z" stroke="#5F5555" stroke-width="1.5" stroke-miterlimit="10" stroke-linecap="round" stroke-linejoin="round"/>
<path d="M14.4885 6.93169V7.02572C14.4874 7.02741 14.4863 7.02911 14.4851 7.03081V24.2598C13.9425 23.4753 13.3563 22.7684 12.744 22.1403C11.7681 21.1389 10.7253 20.3357 9.68541 19.7319C8.05586 18.7843 6.43367 18.3249 5.08789 18.3538V1.02067C7.70639 0.965728 11.3722 2.75784 14.1039 6.39644C14.2229 6.55503 14.3407 6.71759 14.4551 6.88355C14.467 6.89941 14.4778 6.91527 14.4885 6.93169V6.93169Z" stroke="#5F5555" stroke-width="1.5" stroke-miterlimit="10" stroke-linecap="round" stroke-linejoin="round"/>
<path d="M14.5573 7.03069V24.3636C14.5565 24.3619 14.5548 24.3603 14.554 24.3586C14.5524 24.357 14.5516 24.3545 14.5499 24.3529C14.545 24.3464 14.5409 24.339 14.536 24.3325C14.5311 24.3251 14.5262 24.3186 14.5213 24.312C14.5107 24.2957 14.5001 24.2802 14.4886 24.2646C14.4886 24.263 14.487 24.2613 14.4854 24.2597V7.03069C14.4861 7.02904 14.4878 7.0274 14.4886 7.02576V6.93179C14.4911 6.93423 14.4927 6.93587 14.4936 6.93831C14.4952 6.93995 14.496 6.94159 14.4968 6.94323C14.4985 6.94488 14.4993 6.94567 14.4993 6.94731C14.5074 6.95796 14.5148 6.96855 14.5213 6.9792C14.5328 6.99472 14.5434 7.01024 14.554 7.02576C14.5548 7.0274 14.5564 7.02904 14.5573 7.03069V7.03069Z" stroke="#5F5555" stroke-width="1.5" stroke-miterlimit="10" stroke-linecap="round" stroke-linejoin="round"/>
<path d="M28.0368 4.06657V22.4265L14.5537 24.8244V24.3587C14.5545 24.3603 14.5561 24.362 14.557 24.3636V24.3179C18.1829 21.8938 22.0302 20.5147 25.6528 20.183V4.49058L28.0368 4.06657Z" stroke="#5F5555" stroke-width="1.5" stroke-miterlimit="10" stroke-linecap="round" stroke-linejoin="round"/>
<path d="M14.5569 7.03069V24.3513L14.5536 24.3521L14.5496 24.3529L14.5398 24.3546L14.521 24.3578L14.4883 24.3636V6.94895L14.4989 6.94731L14.5209 6.94323L14.5397 6.93995L14.5487 6.93831L14.5536 6.93751V7.02576C14.5544 7.0274 14.5561 7.02904 14.5569 7.03069ZM25.6535 2.76831V20.1829C22.0308 20.5146 18.1835 21.8938 14.5576 24.3178V24.2598C17.3208 20.2638 21.2122 18.2956 23.9549 18.3536V2.99872C24.5252 2.8966 25.0922 2.8198 25.6535 2.76831V2.76831Z" stroke="#5F5555" stroke-width="1.5" stroke-miterlimit="10" stroke-linecap="round" stroke-linejoin="round"/>
<path d="M14.5536 7.02576C14.5544 7.0274 14.5561 7.02904 14.5569 7.03069V24.3178C14.5561 24.3186 14.5545 24.3194 14.5536 24.3202C14.5479 24.3235 14.5414 24.3276 14.5357 24.3325C14.5308 24.3349 14.5259 24.3382 14.521 24.3415C14.5144 24.3455 14.5087 24.3496 14.5022 24.3546C14.4972 24.357 14.4932 24.3603 14.4883 24.3636V6.94895C14.4907 6.94731 14.494 6.94567 14.4964 6.94323C14.4981 6.94244 14.5005 6.9408 14.5022 6.93995C14.5087 6.93502 14.5144 6.93094 14.521 6.92686C14.5316 6.9195 14.543 6.91214 14.5536 6.90562C14.5651 6.89747 14.5757 6.8901 14.5871 6.88359C14.5749 6.89911 14.5642 6.91542 14.5536 6.93179V7.02576V7.02576Z" stroke="#5F5555" stroke-width="1.5" stroke-miterlimit="10" stroke-linecap="round" stroke-linejoin="round"/>
<path d="M23.9545 1.02072V18.3536C21.2118 18.2956 17.3204 20.2637 14.5573 24.2598V7.03069C14.5565 7.02904 14.5548 7.0274 14.554 7.02576V6.93179C14.5646 6.91542 14.5752 6.89911 14.5875 6.88359C14.7027 6.71775 14.8195 6.55513 14.9396 6.39665C17.6709 2.75772 21.336 0.966003 23.9545 1.02072V1.02072ZM12.7441 22.1402V28.0371L11.2148 26.5078L9.68555 28.0371V19.7319C10.7255 20.3357 11.7682 21.1388 12.7441 22.1402V22.1402Z" stroke="#5F5555" stroke-width="1.5" stroke-miterlimit="10" stroke-linecap="round" stroke-linejoin="round"/>
</svg>
