<svg width="104" height="104" viewBox="0 0 104 104" fill="none" xmlns="http://www.w3.org/2000/svg">
<path d="M83.7648 87.9116C82.3686 87.9116 80.9732 87.3886 79.9077 86.3429C77.7777 84.2509 77.7777 80.859 79.9077 78.7668C94.7948 64.1456 94.7948 40.355 79.9077 25.7338C77.7777 23.6417 77.7777 20.2497 79.9077 18.1577C82.0377 16.066 85.4916 16.0658 87.6216 18.1577C96.8936 27.2638 102 39.3713 102 52.2499C102 65.1284 96.8936 77.236 87.6216 86.3424C86.5566 87.3886 85.1607 87.9116 83.7648 87.9116ZM64.3886 77.8101C62.9925 77.8101 61.597 77.2871 60.5316 76.2411C58.4014 74.1489 58.4014 70.7574 60.5316 68.6652C69.7475 59.6139 69.7475 44.8865 60.5316 35.8354C58.4014 33.7432 58.4014 30.3512 60.5316 28.2593C62.6618 26.1673 66.1152 26.1673 68.2455 28.2593C81.7148 41.4881 81.7148 63.0128 68.2455 76.2416C67.1805 77.2871 65.7845 77.8101 64.3886 77.8101ZM49.2734 102.25C48.327 102.25 47.397 101.887 46.7014 101.204L18.6757 73.6784H5.63636C3.62818 73.6784 2 72.0795 2 70.107V34.3928C2 32.4204 3.62818 30.8213 5.63636 30.8213H18.6757L46.7014 3.29595C47.7416 2.2743 49.3055 1.96894 50.6643 2.52184C52.0232 3.07474 52.9091 4.37697 52.9091 5.82139V98.6783C52.9091 100.123 52.0232 101.425 50.6643 101.978C50.2145 102.161 49.7418 102.25 49.2734 102.25Z" fill="white" stroke="#5F5555" stroke-width="3"/>
</svg>
