<svg width="150" height="150" viewBox="0 0 150 150" fill="none" xmlns="http://www.w3.org/2000/svg">
<circle cx="75" cy="75" r="73" fill="white" fill-opacity="0.3" stroke="#5F5555" stroke-width="4"/>
<path d="M106.765 110.912C105.369 110.912 103.973 110.389 102.908 109.343C100.778 107.251 100.778 103.859 102.908 101.767C117.795 87.1456 117.795 63.355 102.908 48.7338C100.778 46.6417 100.778 43.2497 102.908 41.1577C105.038 39.066 108.492 39.0658 110.622 41.1577C119.894 50.2638 125 62.3713 125 75.2499C125 88.1284 119.894 100.236 110.622 109.342C109.557 110.389 108.161 110.912 106.765 110.912ZM87.3886 100.81C85.9925 100.81 84.597 100.287 83.5316 99.2411C81.4014 97.1489 81.4014 93.7574 83.5316 91.6652C92.7475 82.6139 92.7475 67.8865 83.5316 58.8354C81.4014 56.7432 81.4014 53.3512 83.5316 51.2593C85.6618 49.1673 89.1152 49.1673 91.2455 51.2593C104.715 64.4881 104.715 86.0128 91.2455 99.2416C90.1805 100.287 88.7845 100.81 87.3886 100.81ZM72.2734 125.25C71.327 125.25 70.397 124.887 69.7014 124.204L41.6757 96.6784H28.6364C26.6282 96.6784 25 95.0795 25 93.107V57.3928C25 55.4204 26.6282 53.8213 28.6364 53.8213H41.6757L69.7014 26.2959C70.7416 25.2743 72.3055 24.9689 73.6643 25.5218C75.0232 26.0747 75.9091 27.377 75.9091 28.8214V121.678C75.9091 123.123 75.0232 124.425 73.6643 124.978C73.2145 125.161 72.7418 125.25 72.2734 125.25Z" fill="white" stroke="#5F5555" stroke-width="3"/>
</svg>
